<svg height="40" viewBox="0 0 40 40" width="40" xmlns="http://www.w3.org/2000/svg"><path d="m1110 100.32-1.81249.00125c-1.42135 0-1.69696.70125-1.69696 1.73v2.27h3.3903l-.44169 3.55625h-2.94861v9.1225h-3.53472v-9.1225h-2.95583v-3.55625h2.95583v-2.62125c0-3.04375 1.78963-4.7 4.40246-4.7 1.25165 0 2.32759.09625 2.64171.14zm-5-13.32c-11.045 0-20 8.95375-20 20 0 11.045 8.955 20 20 20 11.04625 0 20-8.955 20-20 0-11.04625-8.95375-20-20-20z" fill="#fff" fill-rule="evenodd" transform="translate(-1085 -87)"/></svg>