<svg height="40" viewBox="0 0 40 40" width="40" xmlns="http://www.w3.org/2000/svg"><path d="m1253 117h-4.1686v-6.643373c0-1.584012-.02767-3.62133-2.16667-3.62133-2.16918 0-2.4999 1.72615-2.4999 3.508643v6.75606h-4.16483v-13.66066h3.99632v1.868288h.05785c.55581-1.074362 1.91642-2.207628 3.94477-2.207628 4.22141 0 5.00106 2.828684 5.00106 6.507637zm-17.49805-15c-1.38491 0-2.50195-1.120645-2.50195-2.5 0-1.3793552 1.11704-2.5 2.50195-2.5 1.37841 0 2.49805 1.1206448 2.49805 2.5 0 1.379355-1.11964 2.5-2.49805 2.5zm1.49805 15h-4v-13h4zm6-30c-11.04625 0-20 8.95375-20 20 0 11.045 8.95375 20 20 20s20-8.955 20-20c0-11.04625-8.95375-20-20-20z" fill="#fff" fill-rule="evenodd" transform="translate(-1223 -87)"/></svg>