<svg height="40" viewBox="0 0 40 40" width="40" xmlns="http://www.w3.org/2000/svg"><path d="m1181.9525 102.985542c.0075.173498.0125.346997.0125.522956 0 5.336615-4.1275 11.491502-11.675 11.491502-2.3175 0-4.47375-.668154-6.29-1.813735.32125.036914.6475.055372.97875.055372 1.9225 0 3.69125-.644775 5.09625-1.728832-1.79625-.031993-3.31125-1.199723-3.83375-2.804276.25125.046758.5075.071368.7725.071368.37375 0 .73625-.049219 1.08125-.141506-1.8775-.370376-3.29125-2.00323-3.29125-3.959701v-.051681c.5525.3027 1.18625.484811 1.85875.50573-1.10125-.724756-1.82625-1.961394-1.82625-3.361686 0-.740752.2025-1.434746.55625-2.0315314 2.02375 2.4437434 5.0475 4.0519884 8.4575 4.2205644-.07-.295316-.10625-.604168-.10625-.920403 0-2.23087 1.8375-4.039683 4.1025-4.039683 1.18125 0 2.2475.4909636 2.995 1.276013.935-.180881 1.81375-.5168036 2.60625-.979466-.30625.942552-.9575 1.733754-1.80375 2.234561.83-.098439 1.62-.315004 2.35625-.636161-.55.80966-1.24625 1.52088-2.0475 2.090595m-7.9525-15.985542c-11.04625 0-20 8.95375-20 20 0 11.045 8.95375 20 20 20s20-8.955 20-20c0-11.04625-8.95375-20-20-20" fill="#fff" fill-rule="evenodd" transform="translate(-1154 -87)"/></svg>