<svg height="378" viewBox="0 0 1444 378" width="1444" xmlns="http://www.w3.org/2000/svg"><g fill="none" fill-rule="evenodd" transform="translate(-196 -158)"><path d="m1723.82731 148.688911-25.79825-27.236864c-8.40865-8.890503-19.46085-13.335754-30.50257-13.335754s-22.09393 4.445251-30.50257 13.335754l-167.18343 176.814582c-8.15289 8.615585-12.63708 20.069035-12.63708 32.254123s4.48419 23.636321 12.63708 32.251906l100.15953 105.927789c10.1235 10.706294 24.54042 15.413161 38.60724 12.546472l141.43968-28.651363c17.5741-3.558418 31.03296-17.876339 34.29496-36.4821l25.93242-147.970333c2.59744-14.779075-1.85741-29.941705-11.90334-40.568184l-38.52128-40.716728 36.00141-38.071749 38.5758 40.656868c21.9325 23.190687 31.64929 56.285084 25.99112 88.530339l-25.93452 147.963682c-7.10888 40.603657-36.49198 71.860093-74.84345 79.628751l-141.43969 28.649146c-5.90555 1.192791-11.84883 1.778101-17.7439 1.784752-24.71232 0-48.68252-10.305002-66.51237-29.165726l-100.16163-105.92779c-17.78164-18.800863-27.57391-43.796256-27.57391-70.385732s9.79227-51.584869 27.57391-70.385732l167.18552-176.814583c36.70162-38.8033858 96.41538-38.8144712 133.11699 0l25.72279 27.318896z" fill="#42889c" opacity=".152846"/><path d="m98.9287532 128.808266-28.1893822 23.53766c-18.7097256 15.623599-18.7097256 41.052609 0 56.676208l186.031262 155.341934c9.06912 7.569294 21.114628 11.735717 33.939223 11.735717 12.812931 0 24.86777-4.166423 33.92756-11.735717l111.446611-93.063747c11.26409-9.404156 16.199856-22.818909 13.204807-35.879155l-30.153425-131.412759c-3.743811-16.3287157-18.814692-28.8338281-38.378147-31.8627144l-155.679566-24.0966893c-15.577053-2.4172655-31.513326 1.7257834-42.68178 11.0617653l-43.348902 36.1966517-40.1182608-33.5027933 43.3489018-36.1966517c24.403584-20.37826886 59.21753-29.37922282 93.147422-24.14733312l155.667903 24.09474152c42.712104 6.6148538 75.596996 33.9079434 83.7704 69.5397224l30.153425 131.4186029c6.528927 28.502696-4.240653 57.768944-28.814517 78.289405l-111.444279 93.063748c-19.77572 16.515708-46.078035 25.614054-74.048153 25.614054-27.970119 0-54.272433-9.098346-74.057484-25.614054l-186.0335946-155.341935c-40.8250365-34.100779-40.8250365-89.581015 0-123.681794l28.1893822-23.5376605z" fill="#52bfda" opacity=".200614"/></g></svg>