<svg height="185" viewBox="0 0 185 185" width="185" xmlns="http://www.w3.org/2000/svg"><g fill="none" transform="translate(3 3)"><circle cx="89.5" cy="89.5" fill="#3e92ac" r="89.5" stroke="#fff" stroke-width="5"/><path d="m120.571637 85.7305536c-.515967-.0421232-1.083623-.0614104-1.704512-.0614104-2.301177 0-5.331713.278507-9.104723.7980266-3.863428-7.2495127-11.4347534-19.6294165-18.7251048-21.0663889-.0530779-2.1143384.1820698-4.2070751.7111522-6.2598487.2519661-.9788632.5701253-1.94924.9535519-2.9098961 1.9972128 1.2934757 4.2610498 1.9227008 6.5093029 1.9227008 3.6042098 0 7.1675318-1.6141059 9.5338218-4.6928035 6.593703-8.5730764 3.67534-24.4609334 3.67534-24.4609334s-15.4018682 1.2055262-22.2475373 9.2771358c-5.2135216-2.7580674-12.0446869-2.9967656-14.2458796-2.9967656-.4593404 0-.7171698.0097208-.7171698.0097208s-.7967867 12.5342013 5.0797467 18.5505685c1.8298012 1.8744058 4.256421 2.8146946 6.6841208 2.8146946.725656 0 1.4500777-.0868695 2.1601498-.2555166-.2073744.6136411-.392993 1.2295966-.5545413 1.849101-.6232032 2.3891421-.9017083 4.8230305-.8353608 7.2785206-5.9464296 1.6008363-12.0351205 10.11852-16.107003 17.0088282-1.3392929-.0723656-2.6315254-.1434967-3.836889-.2096903-.6003674-.0325568-1.1812934-.0482951-1.7406179-.0482951-12.4677677 0-15.0594846 7.7824561-15.0594846 7.7824561v8.0608089c.0047832 4.6229071 14.2494284 6.8867591 14.2988033 6.8952461 11.3142477 2.234536 25.2212923 2.983187 25.2212923 2.983187s38.1110604-14.9725643 39.1115184-15.8465053c.999224-.8754838.561639-5.6514537-9.059977-6.4229411zm-33.4644519-31.7305536c-1.5753992 0-3.0480485-.660845-4.1488764-1.8609206-1.8086931-1.9740283-3.07466-5.3497726-3.6602602-9.7619173-.1629214-1.2282737-.2517741-2.3851857-.2980485-3.3771621 1.2844471.0997175 2.8737433.2953717 4.5252809.6707695 1.8919279.4295886 3.5470136 1.0252155 4.9191307 1.7612031-.6780012 1.5334125-1.0348906 3.1715834-1.0833826 4.8108571-.5059137-.6203594-.8419574-1.0214348-.8755175-1.0608177-.2690715-.3212069-.6537551-.5329294-1.0879657-.5587645-.8697516-.0529307-1.614725.6559615-1.663217 1.5827198-.024246.4639305.1293613.8935191.3996156 1.214726 1.731372 2.0650816 3.6151686 4.4761025 4.8660556 6.2432918-.6015671.2203867-1.2390597.3360149-1.8928149.3360149zm5.6795497-12.9228792c2.8008444-3.6651091 7.9862902-5.770532 11.8438102-6.8909627 1.934699-.5625901 3.744511-.9396419 5.171129-1.1861581.129762 1.4507532.231957 3.3059829.187941 5.3325023-.085746 4.0374113-.777048 9.6199536-3.577892 13.2849094-1.643192 2.1497009-4.13471 3.3825883-6.8357963 3.3825883-1.8169697 0-3.5445378-.5624369-5.0163899-1.6289373.4792962-.8737613 1.0112891-1.7355721 1.5990247-2.5842068 3.2435879-4.6799774 7.0415575-7.346918 7.0796325-7.3732703h-.001218c.50336-.3494738.788927-.969518.681859-1.6159144-.1488-.8906144-.986464-1.4902816-1.870428-1.3418203-.242771.0418266-.461629.1352852-.650789.2656676v-.0012257c-.172559.1196576-4.2538111 2.9672338-7.8362723 8.0997959-.4675689.6702973-.9031542 1.3502469-1.3111728 2.0360185-.6151501-1.0185455-1.0196658-2.1641027-1.176842-3.3825883-.2963808-2.2920337.3117633-4.5638436 1.7134039-6.3963981zm-16.2215452 39.9552233c2.3842705-3.6890285 4.6839738-6.6052172 6.8338678-8.6710288 2.2683191-2.1770538 4.3058175-3.3390036 5.8941975-3.3613153h.0446799.0012368c1.5642621 0 3.5776426 1.1397963 5.8216892 3.2958043 2.1403087 2.0558426 4.427953 4.9734554 6.7989282 8.6697629 1.544782 2.4069751 2.919347 4.8299325 4.040211 6.9316644-1.981996.3164782-4.128335.6848589-6.4425704 1.1027684-1.0786574-3.1437365-7.9244296-4.5246893-7.9244296-4.5246893s-8.4390993-.4698119-16.633-.9271229c.4987457-.8309136 1.0205271-1.6740116 1.5651896-2.5158437zm32.5633104 16.1830754c-6.582594 2.6331802-13.8184467 5.4990425-19.6314917 7.7845805-2.9269272-.184642-14.4500729-.996421-23.9189386-2.868318l-.0610607-.011972-.0599868-.00967c-.0276155-.004758-2.7662976-.446026-5.7027367-1.304618-4.1578077-1.2183599-5.4354809-2.2890678-5.7542855-2.6248919v-7.017158c.2457772-.4460259.7802889-1.2746888 1.7294921-2.1116397.9673066-.8526065 2.1526216-1.5396031 3.5249543-2.0408835 1.833817-.6714947 4.0020874-1.0108489 6.4458983-1.0108489.5033676 0 1.0260661.0144275 1.5521397.0431291 8.6298173.4711975 21.7698456 1.1870492 23.7642923 1.2951023.4099355.0923976 1.4034768.3358241 2.4846203.7350373 1.0653413.3933807 1.7617101.7709526 2.1920503 1.0624197-3.4098901.8082494-13.670858 3.0960894-20.9487473 3.1775896-.8953531.0096695-1.6181099.7387209-1.6181099 1.6367588 0 .9041772.7322688 1.6367587 1.6360599 1.6367587 3.8738291-.0431292 8.9222339-.6558393 14.9666347-1.8214006 3.5143684-.6762527 6.3116566-1.3153622 7.4179608-1.5864158l2.7363808-.4820948c8.9894317-1.5864158 14.8121417-2.3249833 18.3240557-2.3249833.529755 0 1.012872.0179577 1.433547.0515708 2.908977.2326825 4.518495.8513786 5.358771 1.3322455-3.150919 1.341915-9.171386 3.7809372-15.8715 6.4597022z" fill="#fff"/></g></svg>