<svg height="179" viewBox="0 0 179 179" width="179" xmlns="http://www.w3.org/2000/svg"><g fill="none" transform=""><circle cx="89.5" cy="89.5" fill="#3e92ac" r="89.5"/><path d="m139.230069 61.3491003-14.45488-23.0071558c-.712119-1.1333916-1.821648-1.9205331-3.122989-2.2165768-1.307084-.2960438-2.640585-.0634792-3.768491.652104l-1.489708.9446853c-2.01583 1.278528-2.803325 3.7759281-2.027675 5.9423707l-2.826224 1.145366c-.269917.1102229-.565102.1367688-.851098.076175l-8.019386-1.6925852c-4.6092512-.9723853-9.2943091-1.0266311-13.9311266-.1627375l-7.5415764 1.4086602c-2.0628496.3846982-3.9465927 1.3593197-5.4564729 2.7847154l-7.0722378-1.1290635c-.1562069-.0248146-.3078195-.0750209-.4467976-.1471562l-3.4978568-1.8257472c.5843401-2.083992-.2048779-4.3916757-2.1175508-5.604777l-1.4897083-.9452624c-1.1279056-.7150062-2.4614069-.9469936-3.7684911-.651527-1.3013411.2954667-2.4108694 1.0831853-3.122989 2.2165769l-14.4548794 23.0071559c-1.4701824 2.3406498-.7718458 5.4470889 1.5574745 6.923845l1.4897083.9458395c.825829.5234145 1.7469903.7732916 2.6578142.7732916 1.2006968 0 2.3802167-.4396653 3.3024546-1.2523428l6.1136042 8.1013114-2.5337675 3.640674c-1.5655145 2.2500476-1.0279791 5.3749535 1.1968204 6.9665492l1.5758519 1.1264665c.6918758.4952817 1.4787967.7886565 2.2973753.8873377-.0086862 1.5931105.7282716 3.1677544 2.1108748 4.1454055l1.5919318 1.1258895c.8522464.6024749 1.8446195.9164082 2.86341.9164082.2997793 0 .601856-.0271229.9039325-.0819458.2334488-.0425599.4532584-.119889.6745754-.1931786.4558426.9254251 1.1855499 1.7000151 2.1049882 2.1968117l1.7194244.9302582c.7523198.4074209 1.5655145.6024749 2.368372.6024749.8198707 0 1.6275379-.2065237 2.3512151-.5948285.5450012.8749307 1.3335014 1.5779617 2.308574 1.9821367l.790223.327783c.6271247.260265 1.2783696.385492 1.9204258.385492 1.5896348 0 3.1195434-.768675 4.0820533-2.155406l.0707813-.1019995 12.866824 1.9769435c.2561333.039241.5122667.058285.7661029.058285 1.4437651 0 2.8174667-.625558 3.7788283-1.750294l1.624666-1.9015612c.49231.1556683.994671.2395618 1.493729.2395618 1.657401 0 3.260818-.8350395 4.207248-2.3389185 1.39854-2.221987 2.13119-3.3408072 2.5202-3.9143558.041277.0010099.082554.0075022.123831.0075022 1.637875 0 3.244739-.8038771 4.194614-2.2535102l2.498018-3.8161796c.138332.0116139.276593.0276279.414781.0276279 1.622944 0 3.209133-.7975291 4.169346-2.2581268l1.645915-2.5062726c.739685-1.1258895.995819-2.4728019.72016-3.7925913-.07796-.3748877-.205812-.7287119-.360654-1.0683255l7.356008-6.98617c.689938.3408398 1.447857.5258671 2.216257.5258671.911973 0 1.833134-.249877 2.658963-.7738687l1.489708-.9452624v.0005771c2.32932-1.4773333 3.027657-4.5837724 1.557475-6.9244222zm-57.8589673-13.3871052 7.644172-1.4114055c4.234734-.7800026 8.517193-.7314331 12.7286463.1468647l8.128408 1.6964622c.985931.2041074 1.998636.1156415 2.934514-.2578807l3.348618-1.3418039 12.84454 20.2125598-7.447961 6.9932083-30.4322025-19.5944556c-1.5295328-.9858445-3.4827718-1.0783577-5.0996068-.2370652l-13.8449493 7.1900158c-.5075161.2636628-1.1302712.2116241-1.5854061-.1312532-.3189437-.239378-.5238126-.5874593-.5761938-.9806406-.0535454-.3931814.0512172-.7828936.294499-1.0974387l6.5139009-8.4198642c1.1232869-1.4507237 2.7389579-2.4330991 4.5490213-2.7673032zm-37.2992102 18.8093104-1.4204484-.949292c-.651632-.4349714-.8476692-1.3506703-.4358816-2.0404852l13.7828397-23.0917134c.1993228-.3336132.5092588-.5658683.8739537-.6527468.104042-.0249051.2080842-.0370681.3110311-.0370681.261748 0 .5180202.0781906.7447224.2287799l1.4204484.9487127v.0005793c.6516321.4349714.8476693 1.3506703.4358817 2.0404851l-13.7817447 23.0905551c-.4128828.6892356-1.2758847.9000607-1.9308023.4621934zm11.5397659 18.7767533c-.6497467-.4840663-.8073302-1.4342705-.3494243-2.1185371l4.5288137-6.7787214c.2820517-.4219146.734248-.6508003 1.1955794-.6508003.2614973 0 .5264204.074104.7650795.2276905l1.5541391 1.0033918c.3437148.2223119.5789482.5707202.6634495.9818777.0788631.3856844.0028548.7733109-.1939819 1.1075258l-4.6345832 7.1031505c-.2209595.2842396-.5150013.4883243-.8627128.552717-.3882492.0717136-.7799243-.0209164-1.099659-.2611567zm8.674469 6.4286091c-.3845354.0686359-.7736215-.0154985-1.0955845-.2346905l-1.5768226-1.0799085c-.6450637-.4422588-.8077518-1.3184736-.3629194-1.9539093l.7805897-1.1120816c.0479958-.0615786.1070129-.1118101.1523067-.1759487 1.3515621-1.9173772 3.1695726-4.5205602 4.5199971-6.458971.023038-.0330725.0356236-.0702964.0577372-.1037149l2.978727-4.2435948c.2787313-.3979776.7383535-.6138486 1.2048017-.6138486.2719052 0 .544948.0736175.7861359.2263878l1.6075399 1.0190218c.3310645.2092288.5551872.5319283.6325494.9077652.0773622.3758368-.0022753.7566555-.2241227 1.0732662l-1.0113251 1.4430839c-.0125856.0173665-.029793.0305817-.0421652.0480866l-6.7600864 9.5586571c-.1087905.1537389-.1827396.3236682-.2716207.4870244l-.4337401.6188994c-.2207096.3155038-.5551871.5263931-.9419979.5944755zm8.0000814 4.3773016c-.4151864.6278728-1.2118954.8280219-1.8593617.4674035l-1.6798216-.9406423c-.3635685-.2036503-.6171689-.5450124-.7136717-.9622327-.0743409-.3173647-.0175333-.6296235.1024641-.9215319l6.8031651-10.3757308c.2277914-.3289623.5614835-.5465441.9492478-.6054801.0706939-.0105035.1413878-.0157552.2109596-.0157552.3254163 0 .6373672.1149544.8965781.3326092l1.4744726 1.2417412c.5778945.4866599.7013283 1.3666156.2794092 2.0032413l-1.9137846 2.8945757c-.0321909.0448584-.0740603.0802347-.1049187.1263331l-3.214889 4.8000767c-.0945391.141286-.1533105.2984731-.232841.4469072l-.9970084 1.5079015c.0000002.0005836.0000002.0005836.0000002.0005836zm6.4442611 1.5372514-.8040995-.3269541c-.5770322-.2337032-.7888838-.6918994-.8649631-.944598-.0564742-.1905313-.1111928-.5208672.0172642-.8875393l3.6109134-5.1649966c.2386256-.2968778.5670102-.5000727.9529663-.5527424.0702271-.0092099.1404541-.0143905.2095107-.0143905.3441125 0 .6730091.1157003.9445536.3355885l.6613046.5336028c.5969299.4835236.7186568 1.3515637.2762265 1.976115l-3.2082053 4.5267023c-.3991238.5612329-1.155235.7788185-1.7954714.5192123zm42.0260901-18.7642947-1.645578 2.5059247c-.434377.6608207-1.304281.8582012-1.979979.4536289l-17.1533076-10.3105352c-.8342803-.5015312-1.9202235-.2302772-2.4212514.6111871-.5010277.8397329-.22868 1.9287885.6078985 2.4314741l15.9894375 9.6109741-2.131882 3.2551194c-.415991.636581-1.264061.8483899-1.929416.4847942l-14.0655517-7.700726c-.8549648-.4703659-1.9282676-.152941-2.3948209.7081459-.4665534.8593556-.1505382 1.9362914.7055759 2.4049259l12.8904057 7.0573637c-.491404.7486175-1.154749 1.7865967-2.082684 3.2600971-.405649.6429296-1.22499.8680126-1.901837.5223081l-10.9996293-5.6091851c-.8687545-.4432405-1.931715-.0946503-2.3729872.7779793-.4412722.8732068-.09423 1.9403314.7756738 2.3835719l8.4868767 4.3283038-1.0116797 1.1833454c-.3321033.3889897-.8308328.5748274-1.3364572.4969141l-11.1564873-1.7134447.8291091-1.1947437c1.4801005-2.1330948 1.0733027-5.0972655-.926212-6.7490287l-.6492677-.5350051c-.5301874-.437902-1.1418923-.7541725-1.7905855-.9416696.7952811-1.9999206.2449118-4.3715891-1.479885-5.7744624l-1.5099783-1.2287227c-.7052168-.5723025-1.5539331-.9131013-2.4375549-1.0416583.0232702-.4210929.0127843-.8457207-.0721807-1.2709257-.2654528-1.3354927-1.0376792-2.4799535-2.1730358-3.2227276l-1.6237438-1.0625074c-2.26152-1.4768911-5.3354865-.8593556-6.8535089 1.3758923l-.4035658.5935844c-.3532906-.4414369-.7669115-.8374244-1.2638454-1.1453264l-1.5639882-.9690114c-2.2049246-1.3668745-5.0626361-.7978905-6.6062987 1.2610422l-6.1043372-8.0856758 12.1168863-19.278147 3.5642929 1.8596044c.4768957.2475914.9871167.4161151 1.515724.5009541l5.0136538.7999826-4.999864 6.5336849c-.8181922 1.0688559-1.1698309 2.3939602-.9905642 3.7300301.1792668 1.33607.8676055 2.5197759 1.9374608 3.3329606 1.5341103 1.1652376 3.6255568 1.3424184 5.3320391.4449718l13.6679467-7.1766865c.4665534-.2458599 1.0319334-.2193117 1.4778022.0698334l30.6948484 19.9821809c.330954.2152717.557336.5477021.637776.9349603.081589.3878353.005745.7831736-.211443 1.1144496zm13.591998-14.3040756v.0005792l-1.420449.9481642c-.651632.436144-1.516824.2287874-1.929707-.4610499l-13.782839-23.0918827c-.411788-.6898373-.215751-1.6055658.435881-2.0411306l1.420449-.9481642c.226702-.1511734.482974-.2293666.743627-.2293666.104042 0 .208084.0121634.312126.0370693.364695.0874606.674631.3191439.873954.6533471l13.78284 23.0918827c.411787.6898373.21575 1.6055658-.435882 2.0405515z" fill="#fff"/></g></svg>