<svg height="185" viewBox="0 0 185 185" width="185" xmlns="http://www.w3.org/2000/svg"><g fill="none" transform="translate(3 3)"><circle cx="89.5" cy="89.5" fill="#3e92ac" r="89.5" stroke="#fff" stroke-width="5"/><path d="m128.28331 65.7784705-3.479242 3.4780159c-.483952.4898268-1.122622.7347875-1.757573.7372914v.0141732h-3.713173v3.7303939c.00468.6548504-.231473 1.3134332-.727783 1.8133229l-18.553497 18.699497c-.9778003.9848032-2.5596128.9848032-3.5374172 0-.4455788-.4497638-.6621825-1.0310079-.7005514-1.6208504v-10.1264415h-12.3760107v10.0002052 7.4957957c0 2.7618902-2.2167652 5.0001262-4.9521365 5.0001262h-13.6149747c-2.7328966 0-4.9484236-2.238236-4.9484236-5.0001262v-29.99197h-4.952137c-1.3503578 0-2.5757055-.5511024-3.4668674-1.4371654h-.032178c-1.961794-1.9770238-1.961794-5.1863153 0-7.163339l34.5882195-34.9246316c1.9580816-1.9770237 5.1365579-1.9770237 7.094641 0l34.589457 34.9246316c.325524.3288189.575541.6985512.792144 1.0822206.079217.1351181.144771.2749606.209155.4148031l-.002508.002504c.451765.9385512.315603 2.0895591-.459204 2.8718269zm-38.6566234-35.7793718-34.6760994 35.0083009h4.9719407c2.732897 0 4.9484236 2.2382836 4.9484236 5.0001262v29.99197h13.6149747v-17.4960481c0-2.7593387 2.2167652-4.9976223 4.9521365-4.9976223h12.3760107c2.7353727 0 4.9521356 2.2382836 4.9521356 4.9976223v3.8978742l13.614973-13.7219062v-2.6718899c0-2.7618426 2.216768-5.0001262 4.95214-5.0001262h2.621499l1.178317-1.1797323zm25.4439104 52.6830734c.975325-.9847559 2.559617-.9847559 3.534942 0 .9778.9848032.9778 2.5806616 0 3.5654175l-17.850466 17.9997174c-.9778051.985984-2.5583823.985984-3.5361825 0-.9753263-.983575-.9753263-2.579433 0-3.565465zm-.045855 10.5476226c.986471-.9947717 2.58561-.9947717 3.572075 0 .988946.9934961.988946 2.609386 0 3.601701l-7.347133 7.4108033c-.986466.993544-2.586845.993544-3.573311 0-.98523-.994772-.98523-2.608157 0-3.602929z" fill="#fff"/></g></svg>