<svg height="185" viewBox="0 0 185 185" width="185" xmlns="http://www.w3.org/2000/svg"><g fill="none" transform="translate(3 3)"><circle cx="89.5" cy="89.5" fill="#3e92ac" r="89.5" stroke="#fff" stroke-width="5"/><g fill="#fff"><path d="m139.573171 68.3862816v-9.6028881c0-.9602888-.823171-1.7833935-1.783537-1.7833935s-1.783536.8231047-1.783536 1.7833935v6.1732852l-7.408537-7.4079422c-.685976-.6859206-1.783537-.6859206-2.469512 0l-20.579269 20.5776173c-.54878.5487365-.685975 1.234657-.411585 1.9205776s.823171 1.0974729 1.646342 1.0974729h5.213414v12.0722022c0 .9602888.823171 1.7833935 1.783537 1.7833935h27.439024c.960366 0 1.783537-.8231047 1.783537-1.7833935v-12.0722022h5.213414c.685976 0 1.371952-.4115523 1.646342-1.0974729s.137195-1.3718411-.411585-1.9205776zm-10.289634 23.0469314h-3.429878v-10.2888087h3.429878zm11.935975-13.7184116c-.960366 0-1.783536.8231047-1.783536 1.7833935v12.0722022h-6.859756v-12.0722022c0-.9602888-.823171-1.7833935-1.783537-1.7833935h-6.859756c-.960366 0-1.783537.8231047-1.783537 1.7833935v12.0722022h-6.859756v-12.0722022c0-.9602888-.823171-1.7833935-1.783536-1.7833935h-2.743903l16.463415-16.4620938 9.054878 9.0541516 7.408536 7.4079422z"/><path d="m64.416367 68.3862816v-9.6028881c0-.9602888-.8246987-1.7833935-1.7868471-1.7833935-.9621485 0-1.7868472.8231047-1.7868472 1.7833935v6.1732852l-7.422288-7.4079422c-.6872489-.6859206-1.7868472-.6859206-2.4740961 0l-20.6174668 20.5776173c-.2748996.5487365-.4123494 1.234657-.2748996 1.9205776.2748996.6859206.8246987 1.0974729 1.6493974 1.0974729h5.2230916v12.0722022c0 .9602888.8246986 1.7833935 1.7868471 1.7833935h27.4899558c.9621485 0 1.7868472-.8231047 1.7868472-1.7833935v-12.0722022h5.2230916c.6872489 0 1.3744978-.4115523 1.6493973-1.0974729.2748996-.6859206.1374498-1.3718411-.4123493-1.9205776zm-10.3087334 23.0469314h-3.4362445v-10.2888087h3.4362445zm11.9581308-13.7184116c-.9621485 0-1.7868472.8231047-1.7868472 1.7833935v12.0722022h-6.8724889v-12.0722022c0-.9602888-.8246987-1.7833935-1.7868472-1.7833935h-6.8724889c-.9621485 0-1.7868471.8231047-1.7868471 1.7833935v12.0722022h-6.872489v-12.0722022c0-.9602888-.8246987-1.7833935-1.7868471-1.7833935h-2.7489956l16.4939735-16.4620938 9.0716854 9.0541516 7.4222881 7.4079422z"/><path d="m116.878865 53.8911203-2.846035-12.8147026s-2.829752.7026096-2.829752.7026096l1.949582 8.1689691c-5.161469-4.7222222-13.4116353-13.9479964-20.3388702-13.9479964-7.4705475 0-29.7389433 13.2232972-29.7389433 13.2232972-.6139687.3185834 2.7510912 3.4188979 2.7510912 3.4188979s20.4681015-12.7952515 26.9878521-12.7952515c5.9764379 0 13.9069592 7.9588766 18.3892882 11.9866544l-9.320813-.8937583v2.8571336l13.926979 1.3065839c.549871.051587 1.037448-.3523513 1.089035-.9022215.009737-.103785.003186-.2084541-.019414-.3102154z"/></g></g></svg>