<svg height="185" viewBox="0 0 185 185" width="185" xmlns="http://www.w3.org/2000/svg"><g fill="none"><circle cx="92.5" cy="92.5" fill="#3e92ac" r="89.5" stroke="#fff" stroke-width="5"/><g fill="#fff" transform="translate(52 27)"><path d="m61.3372647 83h7.1740479c3.9621172 0 4.4886874-1.6081785 4.4886874-5.5042698v-38.7997356c0-3.8960913-.5265702-4.6959946-4.4886874-4.6959946h-7.1740479c-3.9621173 0-4.3372647.7999033-4.3372647 4.6959946v38.7997356c0 3.8960913.3751474 5.5042698 4.3372647 5.5042698zm0-44.3040054h7.1740479v38.7997356h-7.1740479z"/><path d="m37.3372647 83h7.1740479c3.9621172 0 4.4886874-1.3456188 4.4886874-4.6056135v-32.4650849c0-3.2599948-.5265702-3.9293016-4.4886874-3.9293016h-7.1740479c-3.9621173 0-4.3372647.6693068-4.3372647 3.9293016v32.4650849c0 3.2599947.3751474 4.6056135 4.3372647 4.6056135zm0-37.0706984h7.1740479v32.4650849h-7.1740479z"/><path d="m13.3372647 83h7.1740479c3.9621172 0 4.4886874-1.083059 4.4886874-3.7069572v-26.1304342c0-2.6238982-.5265702-3.1626086-4.4886874-3.1626086h-7.1740479c-3.96211726 0-4.3372647.5387104-4.3372647 3.1626086v26.1304342c0 2.6238982.37514744 3.7069572 4.3372647 3.7069572zm0-29.8373914h7.1740479v26.1304342h-7.1740479z"/><path d="m61.5297712 19.9218974s1.3682647.1768241 4.1047941.5304723l3.0805339-15.93637742c.1036288-.53609797-.2419256-1.0562118-.7762899-1.16843849-5.3130948-1.11585126-10.6261897-2.23170253-15.9392845-3.34755379 0 0-1.0380544 3.93760345-1.0380544 3.93760345l10.5683008 2.4661851-61.5297712 36.52446845s1.93114958 3.8269575 1.93114958 3.8269575l61.32456032-37.32365103c-1.1506258 6.99355603-1.7259387 10.49033393-1.7259387 10.49033393z"/></g></g></svg>