<svg height="20" viewBox="0 0 26 20" width="26" xmlns="http://www.w3.org/2000/svg" xmlns:xlink="http://www.w3.org/1999/xlink"><defs><path id="a" d="m27.0263672 11.8164063c.1904297-.1513672.4736328-.0097657.4736328.2294921v9.9853516c0 1.2939453-1.0498047 2.34375-2.34375 2.34375h-20.3125c-1.29394531 0-2.34375-1.0498047-2.34375-2.34375v-9.9804687c0-.2441407.27832031-.3808594.47363281-.2294922 1.09375.8496093 2.54394531 1.9287109 7.52441409 5.546875 1.0302734.7519531 2.7685547 2.3339843 4.5019531 2.3242187 1.7431641.0146485 3.515625-1.6015625 4.5068359-2.3242187 4.9804688-3.6181641 6.4257813-4.7021485 7.5195313-5.5517578zm-12.0263672 6.3085937c1.1328125.0195312 2.7636719-1.4257812 3.5839844-2.0214844 6.4794922-4.7021484 6.9726562-5.1123047 8.4667968-6.28417966.2832032-.21972657.4492188-.56152344.4492188-.92285157v-.92773437c0-1.29394531-1.0498047-2.34375-2.34375-2.34375h-20.3125c-1.29394531 0-2.34375 1.04980469-2.34375 2.34375v.92773437c0 .36132813.16601562.69824219.44921875.92285157 1.49414063 1.16699216 1.98730469 1.58203126 8.46679685 6.28417966.8203125.5957032 2.4511719 2.0410156 3.5839844 2.0214844z"/><mask id="b" fill="#fff"><use fill="none" xlink:href="#a"/></mask></defs><g fill="none" fill-rule="evenodd" transform="translate(-2 -5)"><use fill="#000" fill-rule="nonzero" xlink:href="#a"/><g fill="#fff" fill-rule="evenodd" mask="url(#b)"><path d="m0 0h30v30h-30z"/></g></g></svg>