<svg height="26" viewBox="0 0 26 26" width="26" xmlns="http://www.w3.org/2000/svg" xmlns:xlink="http://www.w3.org/1999/xlink"><defs><path id="a" d="m26.5916409 3.70189123-5.078125-1.17172852c-.5524414-.12749023-1.1171387.15878906-1.340625.68022461l-2.34375 5.46860352c-.2056685.47990295-.0690406 1.03798256.3350586 1.36860356l2.9598144 2.4216796c-1.7564941 3.7438965-4.830957 6.8607422-8.6547363 8.6546875l-2.4216797-2.9597656c-.33062094-.4040992-.88870056-.540727-1.36860351-.3350586l-5.46860352 2.34375c-.52128906.2233887-.80776367.7880371-.6802246 1.340625l1.17172851 5.078125c.12177734.5276856.59243164.9083496 1.1418457.9083496 12.50424802 0 22.65625002-10.1333984 22.65625002-22.65624997 0-.54570312-.3766602-1.01918945-.9083496-1.1418457z"/><mask id="b" fill="#fff"><use fill="none" xlink:href="#a"/></mask></defs><g fill="none" fill-rule="evenodd" transform="translate(-2 -2)"><use fill="#000" fill-rule="nonzero" xlink:href="#a"/><g fill="#fff" fill-rule="evenodd" mask="url(#b)"><path d="m0 0h30v30h-30z"/></g></g></svg>